<mxfile host="app.diagrams.net" agent="Mozilla/5.0 (Windows NT 10.0; Win64; x64) AppleWebKit/537.36 (KHTML, like Gecko) Chrome/135.0.0.0 Safari/537.36 Edg/135.0.0.0" version="26.2.14">
  <diagram name="Страница — 1" id="XOKUxDR56Ez-kv03c0p8">
    <mxGraphModel dx="810" dy="454" grid="1" gridSize="10" guides="1" tooltips="1" connect="1" arrows="1" fold="1" page="1" pageScale="1" pageWidth="827" pageHeight="1169" background="none" math="0" shadow="0">
      <root>
        <mxCell id="0" />
        <mxCell id="1" parent="0" />
        <mxCell id="wE6BnaXjrZ46xYwRWNVd-6" value="Статья" style="shape=umlActor;verticalLabelPosition=bottom;verticalAlign=top;html=1;outlineConnect=0;" vertex="1" parent="1">
          <mxGeometry x="399" y="290" width="40" height="80" as="geometry" />
        </mxCell>
        <mxCell id="wE6BnaXjrZ46xYwRWNVd-23" style="edgeStyle=orthogonalEdgeStyle;rounded=0;orthogonalLoop=1;jettySize=auto;html=1;" edge="1" parent="1" source="wE6BnaXjrZ46xYwRWNVd-8" target="wE6BnaXjrZ46xYwRWNVd-6">
          <mxGeometry relative="1" as="geometry" />
        </mxCell>
        <mxCell id="wE6BnaXjrZ46xYwRWNVd-8" value="Гость&lt;div&gt;&lt;span style=&quot;color: rgba(0, 0, 0, 0); font-family: monospace; font-size: 0px; text-align: start;&quot;&gt;%3CmxGraphModel%3E%3Croot%3E%3CmxCell%20id%3D%220%22%2F%3E%3CmxCell%20id%3D%221%22%20parent%3D%220%22%2F%3E%3CmxCell%20id%3D%222%22%20value%3D%22Actor%22%20style%3D%22shape%3DumlActor%3BverticalLabelPosition%3Dbottom%3BverticalAlign%3Dtop%3Bhtml%3D1%3BoutlineConnect%3D0%3B%22%20vertex%3D%221%22%20parent%3D%221%22%3E%3CmxGeometry%20x%3D%22311%22%20y%3D%22175%22%20width%3D%22205%22%20height%3D%22410%22%20as%3D%22geometry%22%2F%3E%3C%2FmxCell%3E%3C%2Froot%3E%3C%2FmxGraphModel%3E&lt;/span&gt;&lt;/div&gt;" style="shape=umlActor;verticalLabelPosition=bottom;verticalAlign=top;html=1;outlineConnect=0;" vertex="1" parent="1">
          <mxGeometry x="240" y="160" width="30" height="60" as="geometry" />
        </mxCell>
        <mxCell id="wE6BnaXjrZ46xYwRWNVd-10" value="Юзер" style="shape=umlActor;verticalLabelPosition=bottom;verticalAlign=top;html=1;outlineConnect=0;" vertex="1" parent="1">
          <mxGeometry x="240" y="270" width="30" height="60" as="geometry" />
        </mxCell>
        <mxCell id="wE6BnaXjrZ46xYwRWNVd-13" value="Автор" style="shape=umlActor;verticalLabelPosition=bottom;verticalAlign=top;html=1;outlineConnect=0;" vertex="1" parent="1">
          <mxGeometry x="240" y="390" width="30" height="60" as="geometry" />
        </mxCell>
        <mxCell id="wE6BnaXjrZ46xYwRWNVd-14" value="Комментарий" style="shape=umlActor;verticalLabelPosition=bottom;verticalAlign=top;html=1;outlineConnect=0;" vertex="1" parent="1">
          <mxGeometry x="560" y="160" width="30" height="60" as="geometry" />
        </mxCell>
        <mxCell id="wE6BnaXjrZ46xYwRWNVd-19" value="Реакция" style="shape=umlActor;verticalLabelPosition=bottom;verticalAlign=top;html=1;outlineConnect=0;" vertex="1" parent="1">
          <mxGeometry x="560" y="390" width="30" height="60" as="geometry" />
        </mxCell>
        <mxCell id="wE6BnaXjrZ46xYwRWNVd-22" value="Рубрика" style="shape=umlActor;verticalLabelPosition=bottom;verticalAlign=top;html=1;outlineConnect=0;" vertex="1" parent="1">
          <mxGeometry x="404" y="490" width="30" height="60" as="geometry" />
        </mxCell>
        <mxCell id="wE6BnaXjrZ46xYwRWNVd-24" value="Просмотр" style="text;html=1;align=center;verticalAlign=middle;resizable=0;points=[];autosize=1;strokeColor=none;fillColor=none;" vertex="1" parent="1">
          <mxGeometry x="310" y="168" width="80" height="30" as="geometry" />
        </mxCell>
        <mxCell id="wE6BnaXjrZ46xYwRWNVd-32" value="" style="endArrow=classic;html=1;rounded=0;" edge="1" parent="1" target="wE6BnaXjrZ46xYwRWNVd-14">
          <mxGeometry width="50" height="50" relative="1" as="geometry">
            <mxPoint x="270" y="190" as="sourcePoint" />
            <mxPoint x="370" y="200" as="targetPoint" />
          </mxGeometry>
        </mxCell>
        <mxCell id="wE6BnaXjrZ46xYwRWNVd-35" value="" style="endArrow=classic;html=1;rounded=0;" edge="1" parent="1">
          <mxGeometry width="50" height="50" relative="1" as="geometry">
            <mxPoint x="270" y="190" as="sourcePoint" />
            <mxPoint x="670" y="130" as="targetPoint" />
          </mxGeometry>
        </mxCell>
        <mxCell id="wE6BnaXjrZ46xYwRWNVd-36" value="" style="endArrow=classic;html=1;rounded=0;" edge="1" parent="1" target="wE6BnaXjrZ46xYwRWNVd-19">
          <mxGeometry width="50" height="50" relative="1" as="geometry">
            <mxPoint x="670" y="130" as="sourcePoint" />
            <mxPoint x="740" y="170" as="targetPoint" />
          </mxGeometry>
        </mxCell>
        <mxCell id="wE6BnaXjrZ46xYwRWNVd-39" value="" style="endArrow=classic;html=1;rounded=0;" edge="1" parent="1" source="wE6BnaXjrZ46xYwRWNVd-14" target="wE6BnaXjrZ46xYwRWNVd-6">
          <mxGeometry width="50" height="50" relative="1" as="geometry">
            <mxPoint x="430" y="350" as="sourcePoint" />
            <mxPoint x="480" y="300" as="targetPoint" />
          </mxGeometry>
        </mxCell>
        <mxCell id="wE6BnaXjrZ46xYwRWNVd-40" value="Многие к 1" style="text;html=1;align=center;verticalAlign=middle;resizable=0;points=[];autosize=1;strokeColor=none;fillColor=none;" vertex="1" parent="1">
          <mxGeometry x="439" y="260" width="80" height="30" as="geometry" />
        </mxCell>
        <mxCell id="wE6BnaXjrZ46xYwRWNVd-41" value="" style="endArrow=classic;html=1;rounded=0;exitX=1;exitY=1;exitDx=0;exitDy=0;exitPerimeter=0;" edge="1" parent="1" source="wE6BnaXjrZ46xYwRWNVd-8" target="wE6BnaXjrZ46xYwRWNVd-22">
          <mxGeometry width="50" height="50" relative="1" as="geometry">
            <mxPoint x="430" y="350" as="sourcePoint" />
            <mxPoint x="480" y="300" as="targetPoint" />
          </mxGeometry>
        </mxCell>
        <mxCell id="wE6BnaXjrZ46xYwRWNVd-42" value="Просмотр" style="text;html=1;align=center;verticalAlign=middle;resizable=0;points=[];autosize=1;strokeColor=none;fillColor=none;" vertex="1" parent="1">
          <mxGeometry x="270" y="270" width="80" height="30" as="geometry" />
        </mxCell>
        <mxCell id="wE6BnaXjrZ46xYwRWNVd-55" value="&lt;font style=&quot;font-size: 9px;&quot;&gt;Тоже самое, что и гость, с возможностью создания, удаления, эдита коментария, реакции и т.д&lt;/font&gt;" style="rounded=1;whiteSpace=wrap;html=1;" vertex="1" parent="1">
          <mxGeometry x="110" y="320" width="120" height="60" as="geometry" />
        </mxCell>
        <mxCell id="wE6BnaXjrZ46xYwRWNVd-57" value="" style="endArrow=classic;startArrow=classic;html=1;rounded=0;" edge="1" parent="1" source="wE6BnaXjrZ46xYwRWNVd-55" target="wE6BnaXjrZ46xYwRWNVd-10">
          <mxGeometry width="50" height="50" relative="1" as="geometry">
            <mxPoint x="210" y="350" as="sourcePoint" />
            <mxPoint x="260" y="300" as="targetPoint" />
          </mxGeometry>
        </mxCell>
        <mxCell id="wE6BnaXjrZ46xYwRWNVd-58" value="" style="endArrow=classic;startArrow=classic;html=1;rounded=0;entryX=0.5;entryY=0.5;entryDx=0;entryDy=0;entryPerimeter=0;" edge="1" parent="1" source="wE6BnaXjrZ46xYwRWNVd-59" target="wE6BnaXjrZ46xYwRWNVd-13">
          <mxGeometry width="50" height="50" relative="1" as="geometry">
            <mxPoint x="210" y="470" as="sourcePoint" />
            <mxPoint x="260" y="420" as="targetPoint" />
          </mxGeometry>
        </mxCell>
        <mxCell id="wE6BnaXjrZ46xYwRWNVd-59" value="&lt;font style=&quot;font-size: 9px;&quot;&gt;Тоже самое, что и пользователь, с возможностью создания, удаления, эдита коментария, реакции и т.д&lt;/font&gt;&lt;div&gt;&lt;font size=&quot;1&quot;&gt;создание статей, без возможности проставления реакцией к собственной статье&lt;/font&gt;&lt;/div&gt;" style="rounded=1;whiteSpace=wrap;html=1;" vertex="1" parent="1">
          <mxGeometry x="100" y="470" width="180" height="120" as="geometry" />
        </mxCell>
      </root>
    </mxGraphModel>
  </diagram>
</mxfile>
